<svg width="50" height="50" viewBox="0 0 50 50" fill="none" xmlns="http://www.w3.org/2000/svg">
<g clip-path="url(#clip0_50_805)">
<path d="M46.6461 13.0629C44.4105 9.23252 41.3782 6.20002 37.5481 3.96469C33.7176 1.72925 29.5357 0.611816 24.9995 0.611816C20.4641 0.611816 16.281 1.72959 12.4511 3.96469C8.6207 6.1999 5.58843 9.23252 3.35288 13.0629C1.11766 16.8931 0 21.0757 0 25.6107C0 31.0582 1.58933 35.9568 4.76879 40.3076C7.94791 44.6588 12.0549 47.6696 17.0893 49.3405C17.6753 49.4492 18.1091 49.3727 18.3913 49.1129C18.6734 48.8527 18.8143 48.5269 18.8143 48.1367C18.8143 48.0717 18.8086 47.4859 18.7979 46.379C18.7867 45.2719 18.7815 44.3062 18.7815 43.4824L18.0328 43.6119C17.5554 43.6994 16.9531 43.7364 16.2261 43.7259C15.4993 43.7157 14.7449 43.6396 13.9638 43.4979C13.1823 43.3577 12.4554 43.0322 11.7827 42.5222C11.1103 42.0122 10.6329 41.3447 10.3507 40.5206L10.0252 39.7715C9.80825 39.2728 9.46656 38.7188 9.00002 38.1115C8.53337 37.5038 8.06147 37.0918 7.58399 36.8748L7.35619 36.7118C7.20433 36.6032 7.06341 36.4723 6.9332 36.3207C6.80289 36.1691 6.70541 36.0171 6.64019 35.865C6.57521 35.7128 6.62913 35.588 6.803 35.4899C6.97687 35.3921 7.29098 35.3445 7.74702 35.3445L8.39781 35.4418C8.83185 35.5288 9.36874 35.7886 10.0091 36.2228C10.6493 36.6568 11.1755 37.221 11.5879 37.9151C12.0872 38.8052 12.6889 39.4833 13.3945 39.95C14.0996 40.4166 14.8105 40.6495 15.5265 40.6495C16.2425 40.6495 16.8608 40.5953 17.3819 40.4873C17.9023 40.379 18.3906 40.2157 18.8466 39.9989C19.0419 38.5443 19.5736 37.4267 20.4414 36.6458C19.2047 36.5158 18.0927 36.32 17.105 36.0597C16.1179 35.7991 15.0979 35.3761 14.0455 34.7896C12.9926 34.204 12.1192 33.4767 11.4249 32.609C10.7306 31.7409 10.1608 30.6013 9.71625 29.191C9.2716 27.7803 9.04905 26.1529 9.04905 24.3084C9.04905 21.6821 9.90642 19.4472 11.6208 17.6025C10.8177 15.628 10.8934 13.4146 11.8485 10.9624C12.4779 10.7669 13.4112 10.9136 14.648 11.4017C15.885 11.8901 16.7907 12.3085 17.366 12.6553C17.9413 13.0019 18.4024 13.2958 18.7496 13.5341C20.7683 12.9701 22.8514 12.6881 24.9997 12.6881C27.1481 12.6881 29.2314 12.9701 31.2501 13.5341L32.4871 12.7531C33.3329 12.2321 34.3319 11.7547 35.4811 11.3207C36.6315 10.8867 37.5109 10.7672 38.1188 10.9627C39.0949 13.4151 39.1819 15.6284 38.3787 17.6027C40.0929 19.4475 40.9506 21.683 40.9506 24.3087C40.9506 26.1532 40.7274 27.7857 40.2833 29.2074C39.8386 30.6291 39.264 31.7677 38.5589 32.6255C37.8531 33.4828 36.9741 34.2045 35.9218 34.79C34.8691 35.376 33.8487 35.799 32.8617 36.0595C31.874 36.3201 30.762 36.516 29.5252 36.6462C30.6532 37.6225 31.2174 39.1634 31.2174 41.2683V48.136C31.2174 48.5262 31.3531 48.852 31.6246 49.1122C31.896 49.3719 32.3242 49.4486 32.9102 49.3396C37.9454 47.6689 42.0523 44.658 45.2313 40.3068C48.41 35.9561 50 31.0574 50 25.6099C49.9989 21.0757 48.8806 16.8932 46.6464 13.0629H46.6461Z" fill="white"/>
</g>
<defs>
<clipPath id="clip0_50_805">
<rect width="50" height="50" fill="white"/>
</clipPath>
</defs>
</svg>
