<svg width="50" height="50" viewBox="0 0 50 50" fill="none" xmlns="http://www.w3.org/2000/svg">
<g clip-path="url(#clip0_50_807)">
<path d="M50 30.4039V48.8893H39.2835V31.642C39.2835 27.3094 37.7333 24.3524 33.8543 24.3524C30.8931 24.3524 29.1309 26.3452 28.3558 28.2728C28.0729 28.9619 28.0001 29.9212 28.0001 30.8857V48.8893H17.2802C17.2802 48.8893 17.4246 19.678 17.2802 16.6515H27.9994V21.2212C27.9776 21.2553 27.9494 21.2921 27.9289 21.3252H27.9994V21.2211C29.4234 19.0275 31.9669 15.894 37.6598 15.894C44.7128 15.894 50.0002 20.5016 50.0002 30.4038L50 30.4039ZM6.06614 1.11133C2.39877 1.11133 0 3.51672 0 6.68016C0 9.77467 2.32937 12.2531 5.92397 12.2531H5.99546C9.73398 12.2531 12.0589 9.77502 12.0589 6.68016C11.9884 3.51684 9.73398 1.11133 6.06614 1.11133ZM0.636687 48.8893H11.3527V16.6515H0.636804L0.636687 48.8893Z" fill="white"/>
</g>
<defs>
<clipPath id="clip0_50_807">
<rect width="50" height="50" fill="white"/>
</clipPath>
</defs>
</svg>
